<?xml version="1.0" standalone="no"?><!DOCTYPE svg PUBLIC "-//W3C//DTD SVG 1.1//EN" "http://www.w3.org/Graphics/SVG/1.1/DTD/svg11.dtd"><svg t="1776513134856" class="icon" viewBox="0 0 1024 1024" version="1.1" xmlns="http://www.w3.org/2000/svg" p-id="18942" width="256" height="256" xmlns:xlink="http://www.w3.org/1999/xlink"><path d="M201.4 680.1m-90.6 0a90.6 90.6 0 1 0 181.2 0 90.6 90.6 0 1 0-181.2 0Z" fill="#D6B0F7" p-id="18943"></path><path d="M201.4 779c-54.5 0-98.9-44.4-98.9-98.9 0-54.5 44.4-98.9 98.9-98.9s98.9 44.4 98.9 98.9c0 54.5-44.4 98.9-98.9 98.9z m0-181.1c-45.3 0-82.2 36.9-82.2 82.2 0 45.3 36.9 82.2 82.2 82.2s82.2-36.9 82.2-82.2c0-45.3-36.8-82.2-82.2-82.2z" fill="#050405" p-id="18944"></path><path d="M386.3 366.5m-90.6 0a90.6 90.6 0 1 0 181.2 0 90.6 90.6 0 1 0-181.2 0Z" fill="#D6B0F7" p-id="18945"></path><path d="M386.3 465.4c-54.5 0-98.9-44.4-98.9-98.9s44.4-98.9 98.9-98.9c54.5 0 98.9 44.4 98.9 98.9s-44.4 98.9-98.9 98.9z m0-181.1c-45.3 0-82.2 36.9-82.2 82.2s36.9 82.2 82.2 82.2 82.2-36.9 82.2-82.2-36.8-82.2-82.2-82.2z" fill="#050405" p-id="18946"></path><path d="M643.2 653.6m-90.6 0a90.6 90.6 0 1 0 181.2 0 90.6 90.6 0 1 0-181.2 0Z" fill="#D6B0F7" p-id="18947"></path><path d="M643.2 752.5c-54.5 0-98.9-44.4-98.9-98.9s44.4-98.9 98.9-98.9 98.9 44.4 98.9 98.9-44.4 98.9-98.9 98.9z m0-181.1c-45.3 0-82.2 36.9-82.2 82.2 0 45.3 36.9 82.2 82.2 82.2s82.2-36.9 82.2-82.2c0-45.3-36.9-82.2-82.2-82.2z" fill="#050405" p-id="18948"></path><path d="M828.1 340m-90.6 0a90.6 90.6 0 1 0 181.2 0 90.6 90.6 0 1 0-181.2 0Z" fill="#D6B0F7" p-id="18949"></path><path d="M828.1 438.9c-54.5 0-98.9-44.4-98.9-98.9s44.4-98.9 98.9-98.9S927 285.5 927 340s-44.4 98.9-98.9 98.9z m0-181.2c-45.3 0-82.2 36.9-82.2 82.2s36.9 82.2 82.2 82.2c45.3 0 82.2-36.9 82.2-82.2s-36.9-82.2-82.2-82.2zM239 597.9c-1.5 0-3.1-0.4-4.5-1.3-3.9-2.5-5-7.6-2.5-11.5L327.2 436c2.5-3.9 7.6-5 11.5-2.5 3.9 2.5 5 7.6 2.5 11.5L246 594c-1.6 2.5-4.3 3.9-7 3.9z" fill="#050405" p-id="18950"></path><path d="M679.3 571.4c-1.5 0-3.1-0.4-4.5-1.3-3.9-2.5-5-7.6-2.5-11.5l95.3-149.1c2.5-3.9 7.6-5 11.5-2.5 3.9 2.5 5 7.6 2.5 11.5l-95.3 149.1c-1.5 2.4-4.2 3.8-7 3.8zM590.7 588.2c-2.2 0-4.4-0.9-6.1-2.6L444.3 436.2c-3.1-3.3-3-8.6 0.4-11.8 3.3-3.1 8.6-3 11.8 0.4l140.4 149.3c3.1 3.3 3 8.6-0.4 11.8-1.7 1.5-3.7 2.3-5.8 2.3zM619.7 702.6c-1.4 0-2.8-0.4-4.2-1.1-17-9.9-27.6-28.2-27.6-47.8 0-4.6 3.7-8.3 8.3-8.3 4.6 0 8.3 3.7 8.3 8.3 0 13.7 7.4 26.6 19.3 33.4 4 2.3 5.3 7.4 3 11.4-1.5 2.6-4.3 4.1-7.1 4.1zM160.9 724c-1.9 0-3.8-0.6-5.4-2-9.9-8.4-15.9-23-15.9-39 0-4.6 3.7-8.3 8.3-8.3 4.6 0 8.3 3.7 8.3 8.3 0 11 3.8 21.1 10 26.3 3.5 3 4 8.2 1 11.7-1.6 2-4 3-6.3 3zM660 705.8c-3.3 0-6.5-2-7.8-5.3-1.7-4.3 0.5-9.1 4.8-10.8 3.3-1.3 6.5-3 9.4-5.2 3.7-2.8 8.9-2 11.7 1.6 2.8 3.7 2 8.9-1.6 11.7-4.1 3.1-8.6 5.6-13.4 7.4-1.1 0.4-2.1 0.6-3.1 0.6z" fill="#050405" p-id="18951"></path></svg>